<?xml version="1.0" standalone="no"?>
<!DOCTYPE svg PUBLIC "-//W3C//DTD SVG 20010904//EN"
 "http://www.w3.org/TR/2001/REC-SVG-20010904/DTD/svg10.dtd">
<svg version="1.0" xmlns="http://www.w3.org/2000/svg"
 width="1056.000000pt" height="1056.000000pt" viewBox="0 0 1056.000000 1056.000000"
 preserveAspectRatio="xMidYMid meet">
<metadata>
Created by potrace 1.14, written by Peter Selinger 2001-2017
</metadata>
<g transform="translate(0.000000,1056.000000) scale(0.100000,-0.100000)"
fill="#000000" stroke="none">
<path d="M5238 10545 c-3 -3 -101 -7 -219 -10 -118 -3 -234 -7 -259 -9 -25 -3
-81 -7 -125 -11 -44 -3 -87 -7 -95 -10 -8 -2 -44 -6 -80 -10 -97 -9 -172 -19
-255 -35 -27 -5 -66 -12 -85 -15 -19 -4 -53 -10 -75 -15 -22 -5 -56 -12 -75
-15 -19 -3 -39 -10 -46 -15 -6 -6 -13 -7 -17 -4 -3 3 -50 -6 -104 -21 -54 -15
-105 -28 -113 -30 -8 -2 -26 -8 -40 -13 -14 -5 -27 -10 -30 -10 -18 -2 -174
-53 -192 -63 -10 -5 -22 -9 -27 -9 -5 0 -22 -5 -38 -12 -15 -6 -31 -11 -35
-10 -5 1 -8 -2 -8 -6 0 -5 -6 -9 -12 -9 -7 0 -31 -8 -53 -18 -22 -10 -46 -19
-52 -21 -29 -6 -356 -172 -448 -227 -93 -55 -314 -203 -325 -216 -3 -4 -25
-22 -50 -41 -25 -19 -50 -39 -56 -45 -6 -5 -44 -39 -84 -75 -133 -118 -242
-237 -354 -385 -25 -33 -49 -64 -53 -70 -15 -19 -64 -95 -85 -133 -11 -20 -29
-50 -39 -67 -21 -35 -48 -92 -48 -102 1 -3 -3 -9 -8 -12 -13 -9 -89 -185 -81
-187 2 0 -2 -7 -8 -15 -20 -24 -109 -317 -119 -389 -2 -14 -4 -25 -5 -25 -3 0
-19 -96 -35 -205 -13 -89 -19 -221 -18 -400 0 -176 4 -254 18 -360 3 -19 7
-55 10 -80 5 -43 18 -121 30 -185 15 -78 59 -244 72 -275 8 -19 16 -44 18 -55
4 -25 63 -176 75 -190 4 -5 9 -13 9 -18 3 -35 166 -321 210 -368 12 -13 21
-26 21 -29 0 -4 8 -16 17 -28 10 -11 29 -36 43 -54 53 -70 279 -287 370 -354
121 -90 246 -174 259 -174 5 0 11 -4 13 -8 7 -19 517 -292 557 -298 8 -1 76
-30 126 -54 22 -10 69 -30 105 -44 36 -13 79 -30 95 -37 17 -7 33 -13 38 -14
4 -2 9 -4 12 -5 3 -1 8 -3 13 -4 4 -1 12 -4 17 -7 6 -4 28 -12 50 -18 22 -7
49 -16 60 -21 11 -5 43 -16 70 -25 28 -10 57 -20 65 -23 8 -3 17 -6 20 -6 3
-1 58 -19 123 -40 65 -21 123 -39 130 -40 18 -4 130 -36 147 -43 8 -3 20 -7
25 -8 6 -2 54 -15 108 -29 53 -15 105 -29 115 -31 9 -2 53 -13 97 -25 74 -19
114 -29 140 -34 6 -1 16 -5 23 -9 6 -5 12 -6 12 -3 0 2 15 0 33 -5 17 -6 39
-12 48 -14 8 -2 39 -10 67 -19 29 -8 52 -12 52 -9 0 3 7 0 15 -7 8 -7 15 -10
15 -7 0 3 21 -2 48 -10 26 -8 56 -17 67 -19 11 -3 27 -7 35 -9 8 -2 15 -4 15
-5 0 -1 9 -3 20 -6 11 -2 83 -22 160 -44 77 -22 149 -43 161 -45 41 -9 424
-126 534 -162 41 -14 82 -26 90 -28 8 -2 67 -22 130 -45 63 -23 120 -43 125
-44 6 -2 19 -7 30 -11 11 -4 49 -19 85 -32 87 -34 285 -128 321 -154 16 -11
29 -18 29 -15 0 6 168 -107 210 -140 47 -39 167 -160 195 -199 17 -22 32 -42
35 -45 14 -14 79 -143 86 -169 2 -9 10 -34 18 -57 8 -23 17 -54 20 -70 2 -16
5 -29 6 -29 5 0 12 -105 13 -190 1 -120 -6 -185 -29 -285 -6 -28 -6 -28 -23
-90 -16 -54 -88 -208 -107 -228 -8 -7 -14 -17 -14 -21 0 -24 -141 -179 -236
-261 -107 -92 -388 -239 -504 -265 -8 -2 -16 -4 -17 -5 -2 -2 -7 -4 -13 -5 -5
-1 -13 -4 -17 -5 -5 -1 -12 -2 -16 -1 -4 1 -18 -4 -30 -11 -12 -6 -31 -13 -42
-14 -11 -2 -56 -12 -100 -23 -44 -11 -82 -19 -85 -19 -3 0 -7 -1 -10 -2 -9 -3
-45 -9 -87 -14 -24 -3 -53 -8 -65 -11 -13 -3 -41 -7 -63 -9 -22 -3 -65 -7 -95
-11 -163 -18 -284 -22 -560 -20 -168 2 -325 6 -350 9 -25 3 -67 8 -94 11 -27
2 -63 7 -80 10 -17 3 -44 7 -61 10 -16 3 -46 8 -65 11 -64 10 -74 12 -185 40
-61 16 -204 59 -240 73 -11 5 -31 13 -45 18 -61 25 -260 128 -260 135 0 4 -6
8 -14 8 -8 0 -21 6 -28 13 -7 6 -40 30 -73 52 -33 22 -65 45 -71 50 -6 6 -35
30 -65 55 -116 98 -289 295 -289 328 0 7 -4 12 -8 12 -4 0 -21 26 -37 58 -17
31 -36 65 -44 75 -8 9 -11 17 -7 17 4 0 1 12 -7 28 -19 35 -57 132 -57 144 0
32 -159 208 -187 208 -7 0 -13 4 -13 9 0 13 -100 53 -150 60 -25 3 -367 6
-760 6 -810 0 -770 4 -858 -81 -40 -39 -90 -114 -77 -114 3 0 0 -10 -6 -22
-12 -22 -14 -176 -3 -243 4 -28 7 -46 17 -120 4 -26 25 -142 31 -170 32 -139
104 -338 184 -505 40 -84 156 -287 172 -300 3 -3 14 -18 24 -35 27 -42 125
-174 157 -210 175 -199 309 -324 504 -468 50 -37 95 -71 101 -76 6 -5 20 -12
32 -15 12 -4 22 -11 22 -15 0 -4 19 -18 43 -31 23 -13 56 -33 73 -45 38 -24
97 -58 104 -60 3 0 25 -12 50 -27 25 -14 68 -37 95 -50 28 -13 52 -26 55 -29
9 -10 328 -149 342 -149 8 0 18 -4 23 -9 6 -6 91 -37 190 -70 156 -52 206 -67
285 -87 8 -2 42 -10 75 -19 70 -18 78 -19 170 -40 83 -18 94 -20 210 -41 100
-18 106 -19 190 -29 33 -4 70 -11 83 -16 14 -5 22 -5 22 2 0 6 5 7 10 4 13 -8
56 -14 135 -20 33 -2 60 -5 60 -6 0 -3 208 -18 355 -25 117 -5 573 -5 695 0
87 4 174 10 315 21 36 3 128 13 190 21 19 3 55 7 80 9 25 2 56 7 70 10 14 3
41 8 60 10 31 4 79 11 135 20 11 2 21 4 23 5 1 2 10 3 20 5 9 1 35 5 57 10 22
4 49 9 60 12 11 2 40 8 65 14 25 5 54 12 65 14 11 2 40 9 65 16 25 6 52 12 60
14 8 2 15 4 15 5 0 1 7 3 16 5 9 1 43 11 75 20 33 10 66 19 74 20 8 2 16 4 18
5 1 2 5 3 10 4 33 7 278 93 283 99 3 5 9 8 13 8 8 -1 29 7 101 36 33 13 65 26
70 27 18 5 89 37 171 77 45 21 86 39 93 39 6 0 11 3 11 8 0 4 25 18 55 32 30
14 55 28 55 33 0 4 4 7 9 7 14 0 215 121 247 148 6 6 25 17 42 26 16 8 32 19
34 23 1 5 19 19 39 33 136 94 382 325 484 454 17 21 40 50 52 64 32 39 36 43
63 82 13 19 27 37 30 40 4 3 37 55 74 115 37 61 71 117 76 125 76 123 225 504
246 629 3 14 8 35 11 46 4 11 7 27 8 35 1 8 7 40 13 70 12 55 20 107 26 165 2
17 7 59 12 95 16 127 8 621 -12 725 -2 11 -7 45 -10 75 -3 30 -7 57 -9 60 -2
3 -6 24 -9 46 -4 22 -8 49 -11 59 -33 145 -82 313 -98 332 -5 7 -6 13 -1 13 4
0 3 5 -4 12 -7 7 -12 18 -12 25 0 23 -109 243 -156 316 -24 37 -44 72 -44 76
0 5 -3 11 -7 13 -7 2 -29 31 -108 137 -5 8 -73 78 -150 155 -142 143 -293 265
-455 366 -47 29 -97 61 -112 71 -15 11 -31 19 -36 19 -5 0 -21 9 -36 21 -14
11 -26 17 -26 13 0 -4 -8 -1 -17 7 -15 13 -208 111 -223 114 -3 1 -36 16 -74
33 -38 18 -70 32 -72 32 -2 0 -34 14 -71 31 -38 17 -72 32 -78 34 -5 1 -23 7
-38 13 -15 7 -39 15 -52 18 -14 3 -25 10 -25 16 0 5 -4 7 -8 4 -4 -2 -21 2
-37 9 -17 8 -50 20 -75 29 -25 8 -82 28 -127 45 -46 17 -83 28 -83 25 0 -4 -7
0 -17 7 -9 8 -19 13 -22 13 -3 -1 -10 0 -16 2 -9 2 -109 33 -340 104 -38 12
-81 24 -95 26 -14 3 -44 11 -67 19 -23 8 -52 16 -65 19 -13 2 -50 12 -83 22
-33 10 -63 17 -67 16 -4 -1 -19 3 -33 8 -14 5 -36 12 -48 15 -19 4 -68 16
-132 32 -51 13 -102 24 -120 28 -11 2 -20 4 -20 5 0 2 -9 4 -20 5 -20 3 -120
28 -255 64 -41 11 -122 32 -180 48 -58 15 -108 32 -112 38 -4 5 -8 7 -8 4 0
-7 -93 16 -204 51 -38 12 -76 23 -85 25 -9 2 -29 8 -46 15 -16 6 -32 11 -35
11 -6 -1 -258 78 -285 89 -11 5 -49 18 -85 30 -36 12 -74 25 -85 30 -11 4 -65
25 -120 46 -55 21 -120 47 -145 58 -25 11 -48 19 -52 18 -5 -1 -8 3 -8 8 0 5
-3 9 -7 8 -7 -2 -146 65 -198 95 -57 33 -244 159 -270 182 -62 54 -139 131
-164 165 -14 19 -31 40 -37 47 -21 22 -95 173 -115 235 -107 333 -48 741 143
994 88 115 226 235 341 294 26 14 47 28 47 32 0 5 7 8 15 8 8 0 30 9 49 19 19
11 37 17 40 14 3 -4 6 -2 6 4 0 6 11 14 25 17 13 3 37 11 52 18 15 6 30 12 33
13 3 1 12 5 20 8 22 9 189 56 219 62 14 3 37 7 51 10 186 41 393 59 675 58
212 0 264 -4 460 -34 78 -13 75 -12 165 -34 36 -9 70 -18 75 -19 25 -6 143
-45 170 -57 17 -7 32 -13 35 -14 47 -16 194 -88 198 -97 2 -5 9 -8 16 -8 14 0
237 -146 277 -182 85 -76 120 -110 169 -168 30 -36 58 -66 63 -68 4 -2 7 -8 7
-14 0 -6 10 -25 23 -42 49 -65 137 -280 137 -335 0 -10 15 -43 34 -74 19 -31
33 -57 30 -57 -2 0 18 -21 44 -46 52 -52 143 -99 214 -112 69 -13 1512 -12
1557 1 83 25 152 85 189 167 21 45 26 69 25 135 -1 112 -14 209 -44 330 -6 22
-11 47 -13 55 -1 8 -5 22 -8 30 -3 8 -16 49 -28 90 -36 118 -135 338 -196 435
-13 22 -27 46 -31 54 -7 16 -107 170 -120 186 -5 6 -20 26 -33 45 -146 208
-376 454 -565 603 -20 15 -76 60 -132 104 -15 13 -34 23 -40 23 -7 0 -13 4
-13 9 0 5 -17 20 -37 33 -20 12 -44 28 -52 33 -99 64 -128 82 -141 88 -8 4
-27 15 -42 25 -51 33 -114 68 -233 127 -66 33 -123 65 -127 70 -4 6 -8 6 -8 2
0 -5 -17 1 -37 11 -48 25 -90 44 -178 77 -38 15 -79 31 -90 36 -33 14 -296 99
-303 97 -4 -1 -14 2 -22 5 -16 7 -95 28 -122 34 -10 1 -28 5 -40 7 -13 2 -24
5 -25 6 -3 3 -6 4 -53 13 -19 4 -46 9 -60 12 -39 9 -122 24 -160 30 -19 3 -46
7 -60 10 -14 3 -47 7 -75 10 -27 3 -59 7 -70 9 -29 5 -133 17 -201 22 -33 2
-90 7 -129 10 -38 2 -134 6 -212 8 -78 2 -146 6 -151 10 -5 3 -11 3 -14 1z"/>
</g>
</svg>
