<svg width="209" height="264" viewBox="0 0 209 264" fill="none" xmlns="http://www.w3.org/2000/svg">
<path d="M104.366 263.829C82.6667 263.829 64.0152 260.537 48.4114 253.954C32.8076 247.371 20.9829 238.716 12.9371 227.989C4.89143 217.261 0.624765 205.68 0.137146 193.246C0.137146 191.051 0.868575 189.223 2.33143 187.76C3.79429 186.297 5.62286 185.566 7.81715 185.566H40.3657C43.2914 185.566 45.4857 186.175 46.9486 187.394C48.6552 188.37 50.24 190.076 51.7029 192.514C54.141 200.804 59.7486 207.752 68.5257 213.36C77.3029 218.968 89.2495 221.771 104.366 221.771C121.676 221.771 134.72 218.968 143.497 213.36C152.274 207.509 156.663 199.463 156.663 189.223C156.663 182.396 154.347 176.789 149.714 172.4C145.326 168.011 138.621 164.232 129.6 161.063C120.823 157.893 107.657 153.992 90.1029 149.36C61.3333 142.533 40.2438 133.512 26.8343 122.297C13.6686 110.838 7.08572 94.6248 7.08572 73.6571C7.08572 59.5162 10.8648 46.96 18.4229 35.9886C26.2248 25.0171 37.3181 16.3619 51.7029 10.0229C66.3314 3.68381 83.2762 0.514282 102.537 0.514282C122.53 0.514282 139.84 4.04952 154.469 11.12C169.097 18.1905 180.19 27.0895 187.749 37.8171C195.55 48.301 199.695 58.7848 200.183 69.2686C200.183 71.4629 199.451 73.2914 197.989 74.7543C196.526 76.2171 194.697 76.9486 192.503 76.9486H158.491C153.371 76.9486 149.836 74.6324 147.886 70C146.423 62.1981 141.547 55.7371 133.257 50.6172C124.968 45.2533 114.728 42.5714 102.537 42.5714C88.8838 42.5714 78.1562 45.1314 70.3543 50.2514C62.5524 55.3714 58.6514 62.8076 58.6514 72.56C58.6514 79.3867 60.6019 84.9943 64.5029 89.3829C68.4038 93.7714 74.4991 97.6724 82.7886 101.086C91.3219 104.499 103.512 108.278 119.36 112.423C140.815 117.299 157.882 122.785 170.56 128.88C183.482 134.975 192.99 142.655 199.086 151.92C205.181 161.185 208.229 173.01 208.229 187.394C208.229 202.998 203.84 216.651 195.063 228.354C186.53 239.813 174.339 248.59 158.491 254.686C142.888 260.781 124.846 263.829 104.366 263.829Z" fill="white"/>
</svg>
