<!-- Generated by IcoMoon.io -->
<svg id="icon-playstore" version="1.1" xmlns="http://www.w3.org/2000/svg" width="" height="" viewBox="0 0 108 32">
<title>playstore</title>
<path fill="#31352b" d="M4 0.4h100c1.988 0 3.6 1.612 3.6 3.6v24c0 1.988-1.612 3.6-3.6 3.6h-100c-1.988 0-3.6-1.612-3.6-3.6v-24c0-1.988 1.612-3.6 3.6-3.6z"></path>
<path fill="none" stroke="#c2c2c2" stroke-linejoin="miter" stroke-linecap="butt" stroke-miterlimit="4" stroke-width="0.8" d="M4 0.4h100c1.988 0 3.6 1.612 3.6 3.6v24c0 1.988-1.612 3.6-3.6 3.6h-100c-1.988 0-3.6-1.612-3.6-3.6v-24c0-1.988 1.612-3.6 3.6-3.6z"></path>
<path fill="#fff" d="M54.509 17.401c-1.882 0-3.415 1.431-3.415 3.402 0 1.959 1.534 3.402 3.415 3.402s3.416-1.443 3.416-3.402c-0.001-1.971-1.534-3.402-3.416-3.402zM54.509 22.866c-1.031 0-1.92-0.85-1.92-2.062 0-1.225 0.89-2.062 1.92-2.062s1.92 0.838 1.92 2.062c0 1.211-0.889 2.062-1.92 2.062zM47.058 17.401c-1.882 0-3.415 1.431-3.415 3.402 0 1.959 1.534 3.402 3.415 3.402s3.416-1.443 3.416-3.402c0-1.971-1.534-3.402-3.416-3.402zM47.058 22.866c-1.031 0-1.92-0.85-1.92-2.062 0-1.225 0.89-2.062 1.92-2.062s1.92 0.838 1.92 2.062c0.001 1.211-0.889 2.062-1.92 2.062zM38.195 18.446v1.443h3.454c-0.103 0.812-0.374 1.405-0.786 1.817-0.502 0.502-1.289 1.057-2.668 1.057-2.126 0-3.789-1.714-3.789-3.841s1.662-3.841 3.789-3.841c1.147 0 1.985 0.451 2.603 1.031l1.018-1.018c-0.864-0.825-2.010-1.456-3.622-1.456-2.913 0-5.362 2.371-5.362 5.284s2.449 5.284 5.362 5.284c1.572 0 2.758-0.516 3.686-1.482 0.954-0.954 1.25-2.294 1.25-3.377 0-0.334-0.026-0.644-0.078-0.902l-4.858 0.001zM74.442 19.566c-0.283-0.76-1.147-2.166-2.913-2.166-1.753 0-3.21 1.379-3.21 3.402 0 1.907 1.444 3.402 3.377 3.402 1.559 0 2.462-0.954 2.836-1.508l-1.16-0.774c-0.386 0.567-0.915 0.941-1.676 0.941s-1.302-0.348-1.65-1.031l4.55-1.882-0.154-0.386zM69.802 20.701c-0.038-1.315 1.018-1.985 1.779-1.985 0.593 0 1.095 0.297 1.263 0.722l-3.042 1.263zM66.103 24h1.494v-10.001h-1.494v10.001zM63.654 18.162h-0.051c-0.335-0.4-0.98-0.761-1.791-0.761-1.702 0-3.261 1.495-3.261 3.416 0 1.907 1.559 3.39 3.261 3.39 0.812 0 1.456-0.361 1.791-0.773h0.051v0.49c0 1.302-0.696 1.998-1.817 1.998-0.915 0-1.482-0.657-1.714-1.211l-1.302 0.542c0.374 0.902 1.366 2.010 3.016 2.010 1.753 0 3.235-1.031 3.235-3.545v-6.109h-1.418v0.554h-0.001zM61.94 22.866c-1.031 0-1.894-0.864-1.894-2.050 0-1.199 0.863-2.075 1.894-2.075 1.018 0 1.817 0.876 1.817 2.075 0 1.186-0.799 2.050-1.817 2.050zM81.445 13.999h-3.577v10.001h1.492v-3.789h2.084c1.654 0 3.282-1.198 3.282-3.106s-1.626-3.106-3.281-3.106zM81.483 18.819h-2.123v-3.428h2.123c1.116 0 1.75 0.924 1.75 1.714 0 0.774-0.634 1.714-1.75 1.714zM90.709 17.383c-1.081 0-2.2 0.476-2.663 1.531l1.325 0.553c0.283-0.553 0.811-0.734 1.364-0.734 0.772 0 1.557 0.463 1.57 1.286v0.103c-0.27-0.154-0.85-0.386-1.557-0.386-1.428 0-2.882 0.785-2.882 2.251 0 1.338 1.171 2.2 2.483 2.2 1.003 0 1.557-0.45 1.904-0.978h0.051v0.772h1.442v-3.834c0.001-1.774-1.326-2.765-3.036-2.765zM90.528 22.864c-0.488 0-1.17-0.245-1.17-0.85 0-0.772 0.85-1.068 1.583-1.068 0.655 0 0.965 0.142 1.363 0.334-0.116 0.927-0.914 1.583-1.776 1.583zM98.994 17.602l-1.711 4.336h-0.051l-1.776-4.336h-1.608l2.663 6.060-1.518 3.371h1.557l4.105-9.431h-1.66zM85.55 24h1.492v-10.001h-1.492v10.001z"></path>
<path fill="#fff" d="M37.934 8.194c0 0.67-0.198 1.204-0.596 1.602-0.451 0.474-1.040 0.71-1.763 0.71-0.693 0-1.282-0.24-1.766-0.72s-0.727-1.076-0.727-1.786c0-0.711 0.242-1.306 0.727-1.786s1.074-0.721 1.766-0.721c0.344 0 0.673 0.067 0.985 0.201s0.563 0.313 0.75 0.536l-0.422 0.422c-0.318-0.38-0.755-0.57-1.314-0.57-0.506 0-0.942 0.178-1.311 0.533s-0.553 0.817-0.553 1.384c0 0.567 0.184 1.029 0.553 1.384s0.806 0.533 1.311 0.533c0.536 0 0.983-0.178 1.341-0.536 0.232-0.233 0.366-0.557 0.402-0.972h-1.743v-0.577h2.326c0.024 0.126 0.034 0.246 0.034 0.362z"></path>
<path fill="#fff" d="M41.622 6.19h-2.186v1.522h1.971v0.577h-1.971v1.522h2.186v0.59h-2.802v-4.8h2.802v0.59z"></path>
<path fill="#fff" d="M44.223 10.4h-0.617v-4.21h-1.341v-0.59h3.298v0.59h-1.341v4.21z"></path>
<path fill="#fff" d="M47.95 10.4v-4.8h0.617v4.8h-0.617z"></path>
<path fill="#fff" d="M51.302 10.4h-0.617v-4.21h-1.341v-0.59h3.298v0.59h-1.341v4.21z"></path>
<path fill="#fff" d="M58.887 9.78c-0.472 0.485-1.058 0.727-1.76 0.727s-1.288-0.242-1.759-0.727c-0.472-0.485-0.707-1.078-0.707-1.78s0.235-1.295 0.707-1.78c0.471-0.485 1.058-0.728 1.759-0.728 0.698 0 1.283 0.244 1.757 0.731s0.71 1.079 0.71 1.777c0 0.702-0.236 1.295-0.707 1.78zM55.823 9.378c0.355 0.36 0.79 0.539 1.304 0.539s0.95-0.18 1.304-0.539c0.355-0.36 0.534-0.819 0.534-1.378s-0.178-1.018-0.534-1.378c-0.354-0.36-0.79-0.539-1.304-0.539s-0.949 0.18-1.304 0.539c-0.354 0.36-0.533 0.819-0.533 1.378s0.178 1.018 0.533 1.378z"></path>
<path fill="#fff" d="M60.46 10.4v-4.8h0.75l2.333 3.734h0.026l-0.026-0.925v-2.809h0.617v4.8h-0.644l-2.441-3.915h-0.026l0.026 0.925v2.99h-0.615z"></path>
<path fill="#00A0FF" d="M8.349 6.030c-0.233 0.246-0.37 0.629-0.37 1.124v17.693c0 0.496 0.138 0.878 0.37 1.124l0.059 0.058 9.911-9.911v-0.234l-9.911-9.912-0.059 0.058z"></path>
<path fill="#FF9C00" d="M21.622 19.422l-3.303-3.305v-0.234l3.304-3.304 0.074 0.042 3.914 2.224c1.118 0.635 1.118 1.674 0 2.31l-3.99 2.266z"></path>
<path fill="#FF3A44" d="M21.698 19.38l-3.379-3.379-9.97 9.97c0.368 0.39 0.977 0.438 1.662 0.050l11.686-6.641z"></path>
<path fill="#00F076" d="M21.698 12.622l-11.686-6.64c-0.686-0.39-1.294-0.341-1.662 0.050l9.97 9.97 3.378-3.38z"></path>
</svg>
